<svg xmlns="http://www.w3.org/2000/svg" width="33" height="35" viewBox="0 0 33 35">
    <g fill="#FFF" fill-rule="nonzero">
        <path d="M17.847 7.538c-.045-.834-.898-.692-1.73-.692a7.364 7.364 0 0 1 1.73.692zM8.954 5.447c-3.229 0-4.715 4.088-2.134 6.143.88-2.35 2.632-4.037 4.929-4.703a3.445 3.445 0 0 0-2.795-1.44z"/>
        <path d="M2.283 10.95c.132.423.302.828.505 1.212l-1.06 1.061a.73.73 0 0 0 0 1.033l1.869 1.87a.732.732 0 0 0 1.033 0l1.06-1.061c.159.084.335.136.5.208l-.001-.036c0-.868.1-1.686.277-2.454a4.616 4.616 0 0 1-2.133-3.885 4.628 4.628 0 0 1 4.621-4.622c1.726 0 3.216.96 4.011 2.364a8.044 8.044 0 0 1 2.607.076 6.963 6.963 0 0 0-.451-1.082l1.06-1.062a.725.725 0 0 0 0-1.032l-1.868-1.87a.727.727 0 0 0-1.031 0l-1.064 1.063a6.835 6.835 0 0 0-1.212-.503V.73a.728.728 0 0 0-.729-.73H7.633a.73.73 0 0 0-.73.73v1.5c-.423.128-.827.299-1.212.503L4.63 1.672a.727.727 0 0 0-1.033 0L1.728 3.54a.733.733 0 0 0 0 1.033l1.06 1.061a6.984 6.984 0 0 0-.502 1.212h-1.5a.73.73 0 0 0-.73.73v2.645c0 .402.327.73.73.73h1.497zM25.19 25.1c1.17-.64 1.973-1.868 1.973-3.293 0-2.08-1.692-3.77-3.771-3.77-.731 0-1.409.218-1.988.58-.347 1.38-.892 2.7-1.606 3.846a11.296 11.296 0 0 1 5.392 2.638z"/>
        <path d="M32.994 20.38a.788.788 0 0 0-.787-.788H30.59a7.473 7.473 0 0 0-.544-1.308l1.145-1.145a.783.783 0 0 0 0-1.114l-2.016-2.017a.785.785 0 0 0-1.114 0l-1.147 1.146a7.356 7.356 0 0 0-1.308-.543v-1.618a.786.786 0 0 0-.786-.787h-2.853a.776.776 0 0 0-.497.19c.24.876.372 1.827.372 2.84 0 .644-.05 1.298-.144 1.948a4.876 4.876 0 0 1 1.695-.32 4.948 4.948 0 0 1 4.943 4.943c0 1.742-.91 3.268-2.275 4.149a11.27 11.27 0 0 1 2.297 3.83c.084.029.172.05.26.05a.786.786 0 0 0 .558-.23l2.017-2.018a.788.788 0 0 0 0-1.114l-1.147-1.146a7.44 7.44 0 0 0 .544-1.307h1.618a.787.787 0 0 0 .788-.788V20.38zM26.75 30.498c-1.223-3.599-4.456-6.075-8.187-6.412-1.25 1.324-2.797 2.163-4.549 2.163-1.75 0-3.299-.84-4.547-2.163-3.734.337-6.966 2.813-8.19 6.413l-.676 1.99a1.877 1.877 0 0 0 1.776 2.479H25.65a1.877 1.877 0 0 0 1.776-2.479l-.676-1.99z"/>
        <path d="M7.946 15.237c0 4.464 2.718 9.255 6.068 9.255 3.352 0 6.07-4.791 6.07-9.255 0-9.255-12.138-9.273-12.138 0z"/>
    </g>
</svg>
