<svg xmlns="http://www.w3.org/2000/svg" width="54" height="104" viewBox="0 0 54 104">
    <g fill="none" fill-rule="evenodd">
        <path fill="#EB5C2F" fill-rule="nonzero" d="M27.457 0C12.8 0 .917 11.88.917 26.534c0 11.424 16.128 29.594 23.238 37.051a4.562 4.562 0 0 0 6.605 0C37.872 56.128 54 37.958 54 26.534 54 11.88 42.117 0 27.457 0zm0 36.627c-5.575 0-10.096-4.519-10.096-10.093s4.52-10.093 10.096-10.093c5.576 0 10.096 4.519 10.096 10.093s-4.52 10.093-10.096 10.093z"/>
        <g fill="#0392EF" transform="translate(0 50)">
            <circle cx="27" cy="27" r="9.9"/>
            <circle cx="27" cy="27" r="18" opacity=".333"/>
            <circle cx="27" cy="27" r="27" opacity=".145"/>
        </g>
    </g>
</svg>
